<svg class="icon" style="width: 1em;height: 1em;vertical-align: middle;fill: currentColor;overflow: hidden;" viewBox="0 0 1024 1024" version="1.1" xmlns="http://www.w3.org/2000/svg" p-id="32267"><path d="M357.28 476.05H124.01c-60.38 0-109.51-49.12-109.51-109.51V133.27c0-60.38 49.12-109.51 109.51-109.51h233.27c60.38 0 109.51 49.12 109.51 109.51v233.27c-0.01 60.39-49.13 109.51-109.51 109.51zM124.01 78.77c-30.05 0-54.51 24.45-54.51 54.51v233.27c0 30.05 24.45 54.51 54.51 54.51h233.27c30.05 0 54.51-24.45 54.51-54.51V133.27c0-30.05-24.45-54.51-54.51-54.51H124.01zM904.16 1002.88H670.89c-60.38 0-109.51-49.12-109.51-109.51V660.1c0-60.38 49.12-109.51 109.51-109.51h233.27c60.38 0 109.51 49.12 109.51 109.51v233.27c0 60.39-49.13 109.51-109.51 109.51zM670.89 605.6c-30.05 0-54.51 24.45-54.51 54.51v233.27c0 30.05 24.45 54.51 54.51 54.51h233.27c30.05 0 54.51-24.45 54.51-54.51V660.1c0-30.05-24.45-54.51-54.51-54.51H670.89zM357.28 1002.88H124.01c-60.38 0-109.51-49.12-109.51-109.51V660.1c0-60.38 49.12-109.51 109.51-109.51h233.27c60.38 0 109.51 49.12 109.51 109.51v233.27c-0.01 60.39-49.13 109.51-109.51 109.51zM124.01 605.6c-30.05 0-54.51 24.45-54.51 54.51v233.27c0 30.05 24.45 54.51 54.51 54.51h233.27c30.05 0 54.51-24.45 54.51-54.51V660.1c0-30.05-24.45-54.51-54.51-54.51H124.01zM904.16 476.05H670.89c-60.38 0-109.51-49.12-109.51-109.51V133.27c0-60.38 49.12-109.51 109.51-109.51h233.27c60.38 0 109.51 49.12 109.51 109.51v233.27c0 60.39-49.13 109.51-109.51 109.51zM670.89 78.77c-30.05 0-54.51 24.45-54.51 54.51v233.27c0 30.05 24.45 54.51 54.51 54.51h233.27c30.05 0 54.51-24.45 54.51-54.51V133.27c0-30.05-24.45-54.51-54.51-54.51H670.89z" fill="#333333" p-id="32268"></path></svg>